Coordinates
version=1
nRows=19
nColumns=21
inDegrees=yes

Units are S.I. units (second, meters, Newtons, ...)
If the header above contains a line with 'inDegrees', this indicates whether rotational values are in degrees (yes) or radians (no).

endheader
time	bJoint_3	seatpos	slocangle	soarinout	sblpos	plocangle	poarinout	pblpos	hipangle	kneeangle	footangle	lbackangle	uarmleft_out	uarmleft_trn	uarmleft_up	se_inout	se_updown	handleleft_out	handleleft_trn	handleleft_up
      1.74500000	     -0.00000001	     -0.10926761	      5.39135895	     13.69937458	    -13.69937458	      0.00000000	     10.33757749	    -10.33757749	     66.83239411	     55.46143230	     32.29382640	     -9.12418413	     20.63491086	     31.65628088	   -239.51845410	     -4.98864487	    363.90207170	    163.76390995	    -44.68541573	   -233.79137136
      1.75000000	     -0.00000001	     -0.11230000	      5.93003503	     13.70109292	    -13.70109292	      0.00000000	     10.33757749	    -10.33757749	     66.41848168	     56.25903785	     32.67751953	     -8.76189246	     20.11839226	     31.59288259	   -239.67906080	     -5.14828504	    363.88360821	    164.00062102	    -44.63002517	   -233.98452878
      1.75500000	     -0.00000001	     -0.11536637	      6.53220095	     13.70399153	    -13.70399153	      0.00000000	     10.33757749	    -10.33757749	     66.00557746	     57.05513842	     33.06071588	     -8.33328282	     19.61675994	     31.61253186	   -239.86724756	     -5.26129752	    364.14375447	    164.23473778	    -44.62602374	   -234.06730087
      1.76000000	     -0.00000001	     -0.11826342	      7.10737487	     13.70554443	    -13.70554443	      0.00000000	     10.33757749	    -10.33757749	     65.62048042	     57.79802202	     33.41850243	     -7.94608351	     19.30698373	     31.31993856	   -240.00358573	     -4.81081320	    364.01933960	    164.61285919	    -44.90059899	   -234.20807063
      1.76500000	     -0.00000001	     -0.12232665	      7.71178768	     13.70316270	    -13.70316270	      0.00000000	     10.33757749	    -10.33757749	     65.08820295	     58.82546373	     33.91366668	     -7.60590693	     18.89418035	     31.33923311	   -240.18857824	     -4.95402329	    364.30490640	    164.82501511	    -44.87465443	   -234.28387208
      1.77000000	     -0.00000001	     -0.12526214	      8.31929786	     13.69590560	    -13.69590560	      0.00000000	     10.33757749	    -10.33757749	     64.70911415	     59.55766209	     34.26677623	     -7.17933228	     18.35281782	     31.16711570	   -240.36153247	     -4.95669238	    364.24765431	    165.11606224	    -44.90964872	   -234.46446164
      1.77500000	     -0.00000001	     -0.12832638	      8.89907047	     13.70875750	    -13.70875750	      0.00000000	     10.33757749	    -10.33757749	     64.31807969	     60.31333101	     34.63141070	     -6.82168343	     17.81853476	     30.91482012	   -240.55440603	     -4.92455239	    364.05227589	    165.42599453	    -44.96181219	   -234.64623262
      1.78000000	     -0.00000001	     -0.13123620	      9.52000182	     13.68611077	    -13.68611077	      0.00000000	     10.33757749	    -10.33757749	     63.95101642	     61.02304637	     34.97406278	     -6.36716137	     17.13728446	     30.87076262	   -240.74353510	     -5.28177175	    364.12985492	    165.62713443	    -44.81161735	   -234.83054915
      1.78500000	     -0.00000001	     -0.13533741	     10.17643898	     13.71050188	    -13.71050188	      0.00000000	     10.33757749	    -10.33757749	     63.44044248	     62.01084065	     35.45128313	     -6.03228005	     16.71555286	     30.69769651	   -240.98321400	     -5.17589060	    364.28081499	    165.92789831	    -44.93299646	   -234.85097183
      1.79000000	     -0.00000001	     -0.13826482	     10.79871379	     13.68185805	    -13.68185805	      0.00000000	     10.33757749	    -10.33757749	     63.08066657	     62.70731399	     35.78798056	     -5.59515213	     16.01965665	     30.45418070	   -241.15296746	     -5.40156223	    364.02104017	    166.19388311	    -44.83246267	   -235.13986903
      1.79500000	     -0.00000001	     -0.14232367	     11.41885058	     13.70613582	    -13.70613582	      0.00000000	     10.33757749	    -10.33757749	     62.58800353	     63.66161189	     36.24961541	     -5.30972338	     15.58756738	     30.20908231	   -241.38257646	     -5.33286311	    364.00942346	    166.48582802	    -44.91987860	   -235.20762635
      1.80000000	     -0.00000001	     -0.14523688	     12.10180254	     13.70339629	    -13.70339629	      0.00000000	     10.33757749	    -10.33757749	     62.23865680	     64.33870944	     36.57736624	     -4.84998743	     15.10826850	     29.93698270	   -241.59906981	     -5.07266580	    364.09601911	    166.81849192	    -45.12662519	   -235.23936743
      1.80500000	     -0.00000001	     -0.14938701	     12.77774059	     13.71278831	    -13.71278831	      0.00000000	     10.33757749	    -10.33757749	     61.74684643	     65.29250090	     37.03934734	     -4.51093649	     14.58956028	     29.70924544	   -241.84161949	     -5.12090792	    364.14526243	    167.09091892	    -45.15516931	   -235.31137639
      1.81000000	     -0.00000002	     -0.15230570	     13.45200704	     13.70109301	    -13.70109301	      0.00000000	     10.33757749	    -10.33757749	     61.40504563	     65.95577976	     37.36082539	     -4.05888511	     13.83653645	     29.46168084	   -242.07566699	     -5.37462230	    364.04102440	    167.34487940	    -45.07045967	   -235.47927726
      1.81500000	     -0.00000002	     -0.15617836	     14.16717132	     13.71446982	    -13.71446982	      0.00000000	     10.33757749	    -10.33757749	     60.95640342	     66.82688903	     37.78329245	     -3.67284149	     13.23943723	     29.23542682	   -242.35299811	     -5.46258253	    364.17595505	    167.61024010	    -45.09547519	   -235.49498087
      1.82000000	     -0.00000002	     -0.15941874	     14.85079510	     13.70113088	    -13.70113088	      0.00000000	     10.33757749	    -10.33757749	     60.58518347	     67.54810895	     38.13329242	     -3.26619452	     12.77160415	     28.75681439	   -242.54680646	     -5.12419015	    363.93608304	    167.97927686	    -45.31976955	   -235.62579174
      1.82500000	     -0.00000002	     -0.16330473	     15.58485276	     13.72288298	    -13.72288298	      0.00000000	     10.33757749	    -10.33757749	     60.14484038	     68.40414432	     38.54898470	     -2.88252674	     12.16434414	     28.53362783	   -242.85300933	     -5.22368986	    364.16360858	    168.22967291	    -45.35217864	   -235.57471805
      1.83000000	     -0.00000002	     -0.16721210	     16.26830556	     13.70352217	    -13.70352217	      0.00000000	     10.33757749	    -10.33757749	     59.70720984	     69.25547267	     38.96268251	     -2.52006737	     11.54480330	     28.30387047	   -243.08467047	     -5.50090642	    364.21607163	    168.43143197	    -45.25175031	   -235.66931053
      1.83500000	     -0.00000002	     -0.17017792	     17.00530109	     13.71705086	    -13.71705086	      0.00000000	     10.33757749	    -10.33757749	     59.37835757	     69.89556909	     39.27392666	     -2.07333635	     10.81285372	     27.88156003	   -243.37471574	     -5.51777334	    364.09216989	    168.74134199	    -45.32061146	   -235.72721064
